<svg id='Edit_32' width='25' height='20' viewBox='0 0 32 32' xmlns='http://www.w3.org/2000/svg' xmlns:xlink='http://www.w3.org/1999/xlink'><rect width='25' height='25' stroke='none' fill='#ffffff' opacity='0'/>


<g transform="matrix(0.74 0 0 0.74 16 16)" >
<path style="stroke: none; stroke-width: 1; stroke-dasharray: none; stroke-linecap: butt; stroke-dashoffset: 0; stroke-linejoin: miter; stroke-miterlimit: 4; fill: rgb(255,255,255); fill-rule: nonzero; opacity: 1;" transform=" translate(-24, -24)" d="M 38.657 18.536 L 41.096999999999994 16.096 C 43.63099999999999 13.562000000000001 43.63099999999999 9.437999999999999 41.096999999999994 6.9030000000000005 C 39.87 5.6770000000000005 38.239 5.003 36.49999999999999 5.003 C 34.76099999999999 5.003 33.12899999999999 5.678 31.90299999999999 6.904 L 29.46399999999999 9.343 L 38.657 18.536 z M 27.343 11.464 L 9.274 29.533 C 8.889 29.918000000000003 8.595999999999998 30.393 8.425999999999998 30.908 L 5.076 41.029 C 4.896999999999999 41.567 5.037999999999999 42.160000000000004 5.439 42.56100000000001 C 5.726 42.847 6.108 43 6.5 43 C 6.658 43 6.817 42.975 6.9719999999999995 42.924 L 17.09 39.573 C 17.607 39.403 18.083 39.11 18.468 38.724000000000004 L 36.536 20.656000000000002 L 27.343 11.464 z" stroke-linecap="round" />
</g>
</svg>